<svg width="48" height="48" viewBox="0 0 48 48" xmlns="http://www.w3.org/2000/svg">
<path d="M47.2328 12.1938L45.6605 10.6106C45.1656 10.1161 44.5073 9.84373 43.8037 9.84373C43.1004 9.84373 42.4413 10.1161 41.9465 10.6106L24.0107 28.5471L6.05429 10.5907C5.56024 10.0962 4.90111 9.82422 4.19789 9.82422C3.49466 9.82422 2.83514 10.0962 2.3407 10.5907L0.768006 12.1641C-0.256002 13.1874 -0.256002 14.8541 0.768006 15.8773L22.1473 37.3335C22.6414 37.8276 23.2997 38.1757 24.0092 38.1757H24.0174C24.721 38.1757 25.3793 37.8272 25.8734 37.3335L47.2328 15.9355C47.7276 15.4414 47.9992 14.7632 48 14.06C48 13.3563 47.7276 12.6875 47.2328 12.1938Z"/>
</svg>
