<?xml version="1.0" encoding="UTF-8" standalone="no"?>
<svg
   xmlns:dc="http://purl.org/dc/elements/1.1/"
   xmlns:cc="http://creativecommons.org/ns#"
   xmlns:rdf="http://www.w3.org/1999/02/22-rdf-syntax-ns#"
   xmlns:svg="http://www.w3.org/2000/svg"
   xmlns="http://www.w3.org/2000/svg"
   xmlns:sodipodi="http://sodipodi.sourceforge.net/DTD/sodipodi-0.dtd"
   xmlns:inkscape="http://www.inkscape.org/namespaces/inkscape"
   viewBox="0 0 219.61289 296.00001"
   height="296"
   width="219.6129"
   id="svg885"
   version="1.1"
   sodipodi:docname="ebook.svg"
   inkscape:version="0.92.3 (2405546, 2018-03-11)">
  <sodipodi:namedview
     pagecolor="#ffffff"
     bordercolor="#666666"
     borderopacity="1"
     objecttolerance="10"
     gridtolerance="10"
     guidetolerance="10"
     inkscape:pageopacity="0"
     inkscape:pageshadow="2"
     inkscape:window-width="1414"
     inkscape:window-height="882"
     id="namedview1539"
     showgrid="false"
     fit-margin-top="0"
     fit-margin-left="0"
     fit-margin-right="0"
     fit-margin-bottom="0"
     inkscape:zoom="0.47580645"
     inkscape:cx="184"
     inkscape:cy="248"
     inkscape:window-x="343"
     inkscape:window-y="96"
     inkscape:window-maximized="0"
     inkscape:current-layer="svg885" />
  <metadata
     id="metadata891">
    <rdf:RDF>
      <cc:Work
         rdf:about="">
        <dc:format>image/svg+xml</dc:format>
        <dc:type
           rdf:resource="http://purl.org/dc/dcmitype/StillImage" />
        <dc:title></dc:title>
      </cc:Work>
    </rdf:RDF>
  </metadata>
  <defs
     id="defs889" />
  <g
     transform="matrix(0.59677419,0,0,0.59677419,-42.967742,-4.7741935)"
     id="g943">
    <path
       d="M 408,8 H 104 A 32.03,32.03 0 0 0 72,40 v 432 a 32.03,32.03 0 0 0 32,32 h 304 a 32.03,32.03 0 0 0 32,-32 V 40 A 32.03,32.03 0 0 0 408,8 Z m 16,464 a 16.021,16.021 0 0 1 -16,16 H 104 A 16.021,16.021 0 0 1 88,472 V 40 a 16.021,16.021 0 0 1 16,-16 h 304 a 16.021,16.021 0 0 1 16,16 z"
       id="path895"
       inkscape:connector-curvature="0" />
    <path
       d="M 408,32 H 104 a 8,8 0 0 0 -8,8 v 392 a 8,8 0 0 0 8,8 h 304 a 8,8 0 0 0 8,-8 V 40 a 8,8 0 0 0 -8,-8 z m -8,392 H 112 V 48 h 288 z"
       id="path897"
       inkscape:connector-curvature="0" />
    <path
       d="m 280,464 a 24,24 0 1 0 -24,24 24.027,24.027 0 0 0 24,-24 z m -24,8 a 8,8 0 1 1 8,-8 8.009,8.009 0 0 1 -8,8 z"
       id="path899"
       inkscape:connector-curvature="0" />
    <path
       d="m 208,472 h 8 a 8,8 0 0 0 0,-16 h -8 a 8,8 0 0 0 0,16 z"
       id="path901"
       inkscape:connector-curvature="0" />
    <path
       d="m 304,456 h -8 a 8,8 0 0 0 0,16 h 8 a 8,8 0 0 0 0,-16 z"
       id="path903"
       inkscape:connector-curvature="0" />
  </g>
</svg>
